<svg xmlns="http://www.w3.org/2000/svg" viewBox="0 0 420.63 127"><defs><style>.cls-1{fill:#e66239;}.cls-2{fill:#0a0a0a;}</style></defs><g id="OBJECTS"><path class="cls-1" d="M269.84,261.73a12.39,12.39,0,0,1,4.68.79,9.23,9.23,0,0,1,3.23,2.1,8.25,8.25,0,0,1,1.86,3.09,11.36,11.36,0,0,1,.6,3.68,12.35,12.35,0,0,1-.55,3.63,8.64,8.64,0,0,1-1.79,3.25,9.16,9.16,0,0,1-3.23,2.34,11.39,11.39,0,0,1-4.8.91h-10a.73.73,0,0,0-.82.82V294h-5.64V281.24a5.36,5.36,0,0,1,1.2-3.92,5.31,5.31,0,0,1,3.87-1.2H270a5.15,5.15,0,0,0,2.06-.38,3.81,3.81,0,0,0,1.38-1,4.25,4.25,0,0,0,.79-1.41,5,5,0,0,0,.26-1.65,4.56,4.56,0,0,0-1.07-3,4.17,4.17,0,0,0-3.37-1.27H253.3v-5.64Z" transform="translate(-34.12 -167)"/><path class="cls-1" d="M301.77,268.76v4.87h-8.89q-3.25,0-3.25,3.26V294h-5.07V276.12q0-3.83,1.56-5.59t5.28-1.77Z" transform="translate(-34.12 -167)"/><path class="cls-1" d="M321.8,268.76a10.48,10.48,0,0,1,8,3.13q3,3.14,3,9.49t-3,9.51a10.54,10.54,0,0,1-8,3.11h-5.3a10.51,10.51,0,0,1-8-3.11q-2.94-3.11-2.94-9.51t2.94-9.51a10.47,10.47,0,0,1,8-3.11ZM317,273.63c-2.2,0-3.81.61-4.81,1.82s-1.51,3.19-1.51,5.93.51,4.71,1.51,5.9,2.61,1.8,4.81,1.8h4.34c2.2,0,3.81-.6,4.81-1.8s1.51-3.16,1.51-5.9-.51-4.72-1.51-5.93-2.61-1.82-4.81-1.82Z" transform="translate(-34.12 -167)"/><path class="cls-1" d="M339.73,268.76v-6h5.12v6h7v4.87h-7v12a4.29,4.29,0,0,0,.78,3,3.55,3.55,0,0,0,2.61.81h3.49V294h-4.54a11.5,11.5,0,0,1-3.37-.43,5,5,0,0,1-2.32-1.43,6.26,6.26,0,0,1-1.34-2.68,16.87,16.87,0,0,1-.43-4.16V273.63" transform="translate(-34.12 -167)"/><path class="cls-1" d="M371.81,268.76a10.44,10.44,0,0,1,8,3.13q3,3.14,3,9.49t-3,9.51a10.5,10.5,0,0,1-8,3.11H366.5a10.52,10.52,0,0,1-8-3.11q-2.94-3.11-2.94-9.51t2.94-9.51a10.49,10.49,0,0,1,8-3.11ZM367,273.63q-3.3,0-4.8,1.82t-1.51,5.93q0,4.11,1.51,5.9t4.8,1.8h4.35q3.3,0,4.81-1.8t1.5-5.9q0-4.11-1.5-5.93t-4.81-1.82Z" transform="translate(-34.12 -167)"/><path class="cls-1" d="M411.58,268.76v4.87H399.06q-3.3,0-4.81,1.82t-1.5,5.93q0,4.11,1.5,5.9t4.81,1.8h12.52V294h-13a10.51,10.51,0,0,1-8-3.11q-2.94-3.11-2.94-9.51t2.94-9.51a10.47,10.47,0,0,1,8-3.11Z" transform="translate(-34.12 -167)"/><path class="cls-1" d="M432.67,268.76a10.47,10.47,0,0,1,8,3.13q3,3.14,3,9.49t-3,9.51a10.53,10.53,0,0,1-8,3.11h-5.31a10.51,10.51,0,0,1-8-3.11q-2.94-3.11-2.94-9.51t2.94-9.51a10.47,10.47,0,0,1,8-3.11Zm-4.83,4.87q-3.3,0-4.81,1.82t-1.5,5.93q0,4.11,1.5,5.9t4.81,1.8h4.35q3.3,0,4.8-1.8t1.51-5.9q0-4.11-1.51-5.93t-4.8-1.82Z" transform="translate(-34.12 -167)"/><path class="cls-1" d="M454.75,257.81V294h-5.07V257.81Z" transform="translate(-34.12 -167)"/><path class="cls-2" d="M46.21,175.4v69.17H34.12V175.4Z" transform="translate(-34.12 -167)"/><path class="cls-2" d="M92.22,190.47q13.83,0,20.55,6.2t6.71,17.47v30.43h-11V214.14q0-6.45-3.84-9.84t-12.45-3.38H74.49c-.89,0-1.33.51-1.33,1.54v42.11H62.3v-45.7q0-4.81,1.74-6.61t5.84-1.79Z" transform="translate(-34.12 -167)"/><path class="cls-2" d="M135.87,190.47v-4.82a36.13,36.13,0,0,1,.93-8.91,13.21,13.21,0,0,1,2.87-5.74,10.73,10.73,0,0,1,5-3.08,25,25,0,0,1,7.22-.92h9.74v9.94h-7.49q-3.88,0-5.58,1.74T146.84,185v5.43h15v10.45h-15v43.65h-11V200.92" transform="translate(-34.12 -167)"/><path class="cls-2" d="M207.61,190.47q9.63,0,13.93,4.35t4.31,12.25q0,7.49-4.2,11.53t-14.14,4H181.78v3.9a7.74,7.74,0,0,0,1.9,5.38c1.26,1.4,3.4,2.1,6.4,2.1h33.1v10.55h-33.1a24.58,24.58,0,0,1-8.65-1.33,15.39,15.39,0,0,1-5.85-3.74,14.26,14.26,0,0,1-3.33-5.64,23.51,23.51,0,0,1-1-7.12V208.3a23.64,23.64,0,0,1,1-7.07,14.31,14.31,0,0,1,3.33-5.69,15.63,15.63,0,0,1,5.85-3.74,24.58,24.58,0,0,1,8.65-1.33Zm-25.83,23.67H207.2q4.4,0,6.2-1.74a6.3,6.3,0,0,0,1.79-4.72,6.65,6.65,0,0,0-1.84-4.92q-1.84-1.84-5.84-1.84H190.08c-3,0-5.14.72-6.4,2.15a7.8,7.8,0,0,0-1.9,5.33Z" transform="translate(-34.12 -167)"/><path class="cls-2" d="M276,190.47v10.45H256.9q-7,0-7,7v36.68H239.06V206.25q0-8.2,3.34-12t11.32-3.79Z" transform="translate(-34.12 -167)"/><path class="cls-2" d="M316.54,190.47q13.83,0,20.54,6.2t6.71,17.47v30.43h-11V214.14q0-6.45-3.84-9.84c-2.56-2.25-6.72-3.38-12.45-3.38H298.81c-.89,0-1.33.51-1.33,1.54v42.11H286.61v-45.7q0-4.81,1.75-6.61c1.16-1.19,3.1-1.79,5.84-1.79Z" transform="translate(-34.12 -167)"/><path class="cls-2" d="M394.31,190.47q9.63,0,13.94,4.35t4.31,12.25q0,7.49-4.21,11.53t-14.14,4H368.49v3.9a7.69,7.69,0,0,0,1.9,5.38q1.89,2.1,6.4,2.1h33.1v10.55h-33.1a24.64,24.64,0,0,1-8.66-1.33,15.35,15.35,0,0,1-5.84-3.74,14.14,14.14,0,0,1-3.33-5.64,23.51,23.51,0,0,1-1-7.12V208.3a23.64,23.64,0,0,1,1-7.07,14.19,14.19,0,0,1,3.33-5.69,15.59,15.59,0,0,1,5.84-3.74,24.64,24.64,0,0,1,8.66-1.33Zm-25.82,23.67H393.9q4.41,0,6.2-1.74a6.27,6.27,0,0,0,1.8-4.72,6.65,6.65,0,0,0-1.85-4.92c-1.23-1.23-3.17-1.84-5.84-1.84H376.79q-4.52,0-6.4,2.15a7.75,7.75,0,0,0-1.9,5.33Z" transform="translate(-34.12 -167)"/><path class="cls-2" d="M427.82,190.47V177.66h11v12.81h15v10.45h-15v25.62q0,4.61,1.69,6.35t5.58,1.75h7.48v9.93h-9.73a24.82,24.82,0,0,1-7.23-.92,10.82,10.82,0,0,1-5-3.07,13.43,13.43,0,0,1-2.87-5.74,36.7,36.7,0,0,1-.92-8.92v-25" transform="translate(-34.12 -167)"/></g></svg>