<?xml version="1.0" encoding="UTF-8" standalone="no"?>
<svg width="200" height="200" viewBox="0 0 200 200" xmlns="http://www.w3.org/2000/svg">
  <!-- Background gradient representing distributed computing -->
  <defs>
    <linearGradient id="bg-gradient" x1="0%" y1="0%" x2="100%" y2="100%">
      <stop offset="0%" stop-color="#4A00E0" />
      <stop offset="100%" stop-color="#0072CE" />
    </linearGradient>
    <filter id="glow" x="-50%" y="-50%" width="200%" height="200%">
      <feGaussianBlur stdDeviation="4" result="blur" />
      <feComposite in="SourceGraphic" in2="blur" operator="over" />
    </filter>
  </defs>
  
  <!-- Main circular background -->
  <circle cx="100" cy="100" r="90" fill="url(#bg-gradient)" />
  
  <!-- GPU/Circuit board pattern -->
  <g stroke="rgba(255,255,255,0.5)" stroke-width="1.5">
    <!-- Horizontal lines -->
    <line x1="30" y1="70" x2="170" y2="70" />
    <line x1="40" y1="100" x2="160" y2="100" />
    <line x1="30" y1="130" x2="170" y2="130" />
    
    <!-- Vertical lines -->
    <line x1="60" y1="40" x2="60" y2="160" />
    <line x1="100" y1="30" x2="100" y2="170" />
    <line x1="140" y1="40" x2="140" y2="160" />
    
    <!-- Connection nodes -->
    <circle cx="60" cy="70" r="4" fill="#ffffff" />
    <circle cx="100" cy="70" r="4" fill="#ffffff" />
    <circle cx="140" cy="70" r="4" fill="#ffffff" />
    
    <circle cx="60" cy="100" r="4" fill="#ffffff" />
    <circle cx="100" cy="100" r="4" fill="#ffffff" />
    <circle cx="140" cy="100" r="4" fill="#ffffff" />
    
    <circle cx="60" cy="130" r="4" fill="#ffffff" />
    <circle cx="100" cy="130" r="4" fill="#ffffff" />
    <circle cx="140" cy="130" r="4" fill="#ffffff" />
  </g>
  
  <!-- Neural network representation -->
  <g filter="url(#glow)">
    <!-- Neural connections -->
    <line x1="60" y1="70" x2="100" y2="100" stroke="#00FFFF" stroke-width="2" />
    <line x1="100" y1="70" x2="60" y2="100" stroke="#00FFFF" stroke-width="2" />
    <line x1="140" y1="70" x2="100" y2="100" stroke="#00FFFF" stroke-width="2" />
    
    <line x1="60" y1="100" x2="100" y2="130" stroke="#00FFFF" stroke-width="2" />
    <line x1="100" y1="100" x2="60" y2="130" stroke="#00FFFF" stroke-width="2" />
    <line x1="140" y1="100" x2="100" y2="130" stroke="#00FFFF" stroke-width="2" />
    
    <line x1="100" y1="70" x2="140" y2="100" stroke="#00FFFF" stroke-width="2" />
    <line x1="100" y1="100" x2="140" y2="130" stroke="#00FFFF" stroke-width="2" />
  </g>
  
  <!-- Central core representing AI/GPU processing -->
  <circle cx="100" cy="100" r="20" fill="#ffffff" opacity="0.9" />
  
  <!-- Abstract GPU/AI symbol -->
  <g transform="translate(85, 85)">
    <path d="M15,0 L30,15 L15,30 L0,15 Z" fill="#4A00E0" />
    <circle cx="15" cy="15" r="8" fill="#00FFFF" />
  </g>
  
  <!-- P2P connection points around the edge -->
  <g fill="#ffffff">
    <circle cx="30" cy="50" r="5" />
    <circle cx="20" cy="100" r="5" />
    <circle cx="30" cy="150" r="5" />
    <circle cx="170" cy="50" r="5" />
    <circle cx="180" cy="100" r="5" />
    <circle cx="170" cy="150" r="5" />
  </g>
  
  <!-- Connection lines representing P2P network -->
  <g stroke="#ffffff" stroke-width="1.5" stroke-dasharray="5,3">
    <path d="M30,50 C50,60 70,40 100,30" />
    <path d="M20,100 C40,90 60,110 80,100" />
    <path d="M30,150 C50,140 70,160 100,170" />
    <path d="M170,50 C150,60 130,40 100,30" />
    <path d="M180,100 C160,90 140,110 120,100" />
    <path d="M170,150 C150,140 130,160 100,170" />
  </g>
</svg>
